{"title":"Lorde - Royals 1080p HD","uid":9405989,"size":118473733,"categoryP":"video","categoryS":"music_videos","magnet":"?xt=urn:btih:35131a6d5ba4f44182b112caf32d25d43bf35e93&amp;dn=Lorde+-+Royals+1080p+HD&amp;tr=udp%3A%2F%2Ftracker.openbittorrent.com%3A80&amp;tr=udp%3A%2F%2Fopen.demonii.com%3A1337&amp;tr=udp%3A%2F%2Ftracker.coppersurfer.tk%3A6969&amp;tr=udp%3A%2F%2Fexodus.desync.com%3A6969","seeders":4,"leechers":1,"uploader":"tlbslicer","files":5,"time":1388158464,"description":"Screenshots:\n &lt;a href=&quot;\nhttp://s27.postimg.org/47zk8tkhf/vlcsnap_3.png&quot; rel=&quot;nofollow&quot; target=&quot;_NEW&quot;&gt;\nhttp://s27.postimg.org/47zk8tkhf/vlcsnap_3.png&lt;/a&gt;\n &lt;a href=&quot;\nhttp://s27.postimg.org/dd7x2onw3/vlcsnap_2.png&quot; rel=&quot;nofollow&quot; target=&quot;_NEW&quot;&gt;\nhttp://s27.postimg.org/dd7x2onw3/vlcsnap_2.png&lt;/a&gt;\n &lt;a href=&quot;\nhttp://s27.postimg.org/l4on18s1f/vlcsnap_1.png&quot; rel=&quot;nofollow&quot; target=&quot;_NEW&quot;&gt;\nhttp://s27.postimg.org/l4on18s1f/vlcsnap_1.png&lt;/a&gt;\n\n\n\nLorde-Royals.1080p.HDTV-shadowCopy\n\nFormat                                   : MPEG-4\nFormat profile                           : Base Media\nCodec ID                                 : isom\nFile size                                : 109 MiB\nDuration                                 : 3mn 16s\nOverall bit rate mode                    : Variable\nOverall bit rate                         : 4 650 Kbps\nWriting application                      : Lavf54.63.104\n\nVideo\nID                                       : 1\nFormat                                   : AVC\nFormat/Info                              : Advanced Video Codec\nFormat profile                           : &lt;a class=&quot;__cf_email__&quot; href=&quot;/cdn-cgi/l/email-protection&quot; data-cfemail=&quot;307d51595e707c041e00&quot;&gt;[email&amp;#160;protected]&lt;/a&gt;&lt;script cf-hash='f9e31' type=&quot;text/javascript&quot;&gt;\n/* &lt;![CDATA[ */!function(){try{var t=&quot;currentScript&quot;in document?document.currentScript:function(){for(var t=document.getElementsByTagName(&quot;script&quot;),e=t.length;e--;)if(t[e].getAttribute(&quot;cf-hash&quot;))return t[e]}();if(t&amp;&amp;t.previousSibling){var e,r,n,i,c=t.previousSibling,a=c.getAttribute(&quot;data-cfemail&quot;);if(a){for(e=&quot;&quot;,r=parseInt(a.substr(0,2),16),n=2;a.length-n;n+=2)i=parseInt(a.substr(n,2),16)^r,e+=String.fromCharCode(i);e=document.createTextNode(e),c.parentNode.replaceChild(e,c)}}}catch(u){}}();/* ]]&gt; */&lt;/script&gt;\nFormat settings, CABAC                   : Yes\nFormat settings, ReFrames                : 4 frames\nFormat settings, GOP                     : M=4, N=28\nCodec ID                                 : avc1\nCodec ID/Info                            : Advanced Video Coding\nDuration                                 : 3mn 16s\nBit rate                                 : 4 518 Kbps\nWidth                                    : 1 920 pixels\nHeight                                   : 1 088 pixels\nOriginal height                          : 1 080 pixels\nDisplay aspect ratio                     : 16:9\nOriginal display aspect ratio            : 16:9\nFrame rate mode                          : Variable\nFrame rate                               : 45.679 fps\nOriginal frame rate                      : 25.000 fps\nMinimum frame rate                       : 1.021 fps\nMaximum frame rate                       : 50.043 fps\nColor space                              : YUV\nChroma subsampling                       : 4:2:0\nBit depth                                : 8 bits\nScan type                                : MBAFF\nScan order                               : Top Field First\nBits/(Pixel*Frame)                       : 0.047\nStream size                              : 106 MiB (97%)\n\nAudio\nID                                       : 2\nFormat                                   : AAC\nFormat/Info                              : Advanced Audio Codec\nFormat profile                           : HE-AAC / LC\nCodec ID                                 : 40\nDuration                                 : 3mn 16s\nBit rate mode                            : Variable\nBit rate                                 : 127 Kbps\nMaximum bit rate                         : 128 Kbps\nChannel(s)                               : 2 channels\nChannel positions                        : Front: L R\nSampling rate                            : 48.0 KHz / 24.0 KHz\nCompression mode                         : Lossy\nStream size                              : 2.97 MiB (3%)\n","torrent":{"xt":"urn:btih:35131a6d5ba4f44182b112caf32d25d43bf35e93","amp;dn":"Lorde+-+Royals+1080p+HD","amp;tr":["udp%3A%2F%2Ftracker.openbittorrent.com%3A80","udp%3A%2F%2Fopen.demonii.com%3A1337","udp%3A%2F%2Ftracker.coppersurfer.tk%3A6969","udp%3A%2F%2Fexodus.desync.com%3A6969"],"infoHash":"35131a6d5ba4f44182b112caf32d25d43bf35e93","infoHashBuffer":{"type":"Buffer","data":[53,19,26,109,91,164,244,65,130,177,18,202,243,45,37,212,59,243,94,147]},"announce":[],"urlList":[]}}